<svg width="1024" height="1024" viewBox="0 0 1024 1024" fill="none" xmlns="http://www.w3.org/2000/svg">
<g filter="url(#filter0_ii_6322_2447)">
<rect width="1024" height="1024" rx="228" fill="#3B82F6"/>
<rect width="1024" height="1024" rx="228" fill="#2563EB"/>
<rect width="1024" height="1024" rx="228" fill="url(#paint0_linear_6322_2447)"/>
<g filter="url(#filter1_di_6322_2447)">
<g clip-path="url(#clip0_6322_2447)">
<path d="M512 348.667V162C507.928 162 503.855 162.071 499.786 162.213L506.3 348.767C508.2 348.7 510.1 348.667 512 348.667Z" fill="white"/>
<path d="M506.3 348.767L499.785 162.213C495.715 162.356 491.648 162.568 487.585 162.852L500.607 349.064C502.502 348.932 504.401 348.833 506.3 348.767Z" fill="white" fill-opacity="0.999969"/>
<path d="M500.607 349.064L487.585 162.852C483.523 163.137 479.465 163.491 475.415 163.917L494.927 349.562C496.817 349.363 498.71 349.197 500.607 349.064Z" fill="white" fill-opacity="0.999876"/>
<path d="M494.928 349.562L475.415 163.917C471.365 164.343 467.322 164.84 463.29 165.406L489.269 350.257C491.15 349.992 493.037 349.761 494.928 349.562Z" fill="white" fill-opacity="0.999722"/>
<path d="M489.269 350.256L463.289 165.406C459.256 165.973 455.234 166.61 451.223 167.317L483.638 351.148C485.509 350.818 487.386 350.52 489.269 350.256Z" fill="white" fill-opacity="0.999506"/>
<path d="M483.638 351.148L451.223 167.317C447.213 168.024 443.214 168.801 439.231 169.648L478.041 352.235C479.9 351.841 481.766 351.478 483.638 351.148Z" fill="white" fill-opacity="0.999228"/>
<path d="M478.041 352.235L439.231 169.648C435.247 170.495 431.279 171.411 427.327 172.396L472.486 353.518C474.33 353.059 476.182 352.631 478.041 352.235Z" fill="white" fill-opacity="0.998888"/>
<path d="M472.486 353.518L427.327 172.396C423.375 173.382 419.441 174.436 415.527 175.559L466.979 354.994C468.806 354.47 470.642 353.978 472.486 353.518Z" fill="white" fill-opacity="0.998486"/>
<path d="M466.979 354.994L415.527 175.559C411.613 176.681 407.717 177.871 403.845 179.13L461.528 356.661C463.335 356.074 465.153 355.517 466.979 354.994Z" fill="white" fill-opacity="0.998023"/>
<path d="M461.528 356.661L403.845 179.13C399.971 180.389 396.121 181.715 392.293 183.107L456.137 358.517C457.923 357.866 459.72 357.248 461.528 356.661Z" fill="white" fill-opacity="0.997497"/>
<path d="M456.136 358.517L392.293 183.107C388.466 184.501 384.664 185.96 380.888 187.486L450.814 360.56C452.577 359.848 454.351 359.167 456.136 358.517Z" fill="white" fill-opacity="0.99691"/>
<path d="M450.815 360.56L380.888 187.486C377.112 189.012 373.363 190.603 369.643 192.259L445.566 362.788C447.302 362.014 449.052 361.272 450.815 360.56Z" fill="white" fill-opacity="0.996261"/>
<path d="M445.566 362.788L369.642 192.259C365.922 193.915 362.231 195.637 358.57 197.422L440.399 365.197C442.107 364.364 443.83 363.561 445.566 362.788Z" fill="white" fill-opacity="0.995551"/>
<path d="M440.4 365.197L358.571 197.422C354.91 199.207 351.281 201.056 347.685 202.969L435.319 367.785C436.998 366.893 438.692 366.03 440.4 365.197Z" fill="white" fill-opacity="0.994778"/>
<path d="M435.319 367.785L347.685 202.969C344.089 204.88 340.527 206.855 337 208.891L430.333 370.55C431.979 369.599 433.642 368.677 435.319 367.785Z" fill="white" fill-opacity="0.993944"/>
<path d="M430.333 370.55L337 208.891C333.473 210.928 329.982 213.026 326.528 215.184L425.446 373.486C427.058 372.479 428.688 371.5 430.333 370.55Z" fill="white" fill-opacity="0.993048"/>
<path d="M425.447 373.486L326.528 215.183C323.075 217.341 319.659 219.56 316.283 221.837L420.665 376.59C422.241 375.528 423.835 374.493 425.447 373.486Z" fill="white" fill-opacity="0.99209"/>
<path d="M420.665 376.59L316.283 221.837C312.906 224.114 309.571 226.45 306.276 228.844L415.996 379.861C417.533 378.743 419.09 377.653 420.665 376.59Z" fill="white" fill-opacity="0.991071"/>
<path d="M415.995 379.861L306.276 228.845C302.98 231.238 299.727 233.69 296.519 236.197L411.442 383.292C412.94 382.121 414.457 380.978 415.995 379.861Z" fill="white" fill-opacity="0.989989"/>
<path d="M411.442 383.291L296.519 236.196C293.31 238.703 290.144 241.267 287.025 243.884L407.011 386.879C408.467 385.657 409.945 384.462 411.442 383.291Z" fill="white" fill-opacity="0.988846"/>
<path d="M407.012 386.879L287.025 243.884C283.905 246.502 280.831 249.174 277.805 251.9L402.709 390.62C404.121 389.348 405.556 388.101 407.012 386.879Z" fill="white" fill-opacity="0.987641"/>
<path d="M402.709 390.62L277.804 251.899C274.778 254.624 271.799 257.401 268.87 260.231L398.539 394.508C399.907 393.187 401.297 391.891 402.709 390.62Z" fill="white" fill-opacity="0.986374"/>
<path d="M398.539 394.508L268.869 260.231C265.94 263.06 263.06 265.94 260.231 268.869L394.508 398.539C395.828 397.172 397.172 395.828 398.539 394.508Z" fill="white" fill-opacity="0.985045"/>
<path d="M394.508 398.539L260.231 268.87C257.401 271.799 254.624 274.778 251.899 277.804L390.62 402.709C391.891 401.297 393.187 399.907 394.508 398.539Z" fill="white" fill-opacity="0.983655"/>
<path d="M390.62 402.709L251.9 277.805C249.174 280.831 246.502 283.905 243.884 287.025L386.879 407.012C388.101 405.556 389.348 404.121 390.62 402.709Z" fill="white" fill-opacity="0.982203"/>
<path d="M386.879 407.011L243.884 287.025C241.267 290.144 238.703 293.31 236.196 296.519L383.291 411.442C384.462 409.945 385.657 408.467 386.879 407.011Z" fill="white" fill-opacity="0.980689"/>
<path d="M383.292 411.442L236.197 296.519C233.69 299.727 231.238 302.98 228.845 306.276L379.861 415.995C380.978 414.457 382.121 412.94 383.292 411.442Z" fill="white" fill-opacity="0.979113"/>
<path d="M379.861 415.996L228.844 306.276C226.45 309.571 224.114 312.906 221.837 316.283L376.59 420.665C377.653 419.09 378.743 417.533 379.861 415.996Z" fill="white" fill-opacity="0.977475"/>
<path d="M376.59 420.665L221.837 316.283C219.56 319.659 217.341 323.075 215.183 326.528L373.486 425.447C374.493 423.835 375.528 422.241 376.59 420.665Z" fill="white" fill-opacity="0.975776"/>
<path d="M373.486 425.446L215.184 326.528C213.026 329.982 210.928 333.473 208.891 337L370.55 430.333C371.5 428.688 372.479 427.058 373.486 425.446Z" fill="white" fill-opacity="0.974015"/>
<path d="M370.55 430.333L208.891 337C206.855 340.527 204.88 344.089 202.969 347.685L367.785 435.319C368.677 433.642 369.599 431.979 370.55 430.333Z" fill="white" fill-opacity="0.972192"/>
<path d="M367.785 435.319L202.969 347.685C201.056 351.281 199.207 354.91 197.422 358.571L365.197 440.4C366.03 438.692 366.893 436.998 367.785 435.319Z" fill="white" fill-opacity="0.970307"/>
<path d="M365.197 440.399L197.422 358.57C195.637 362.231 193.915 365.922 192.259 369.642L362.788 445.566C363.561 443.83 364.364 442.107 365.197 440.399Z" fill="white" fill-opacity="0.968361"/>
<path d="M362.788 445.566L192.259 369.643C190.603 373.363 189.012 377.112 187.486 380.888L360.56 450.815C361.272 449.052 362.014 447.302 362.788 445.566Z" fill="white" fill-opacity="0.966352"/>
<path d="M360.56 450.814L187.486 380.888C185.96 384.664 184.501 388.466 183.107 392.293L358.517 456.136C359.167 454.351 359.848 452.577 360.56 450.814Z" fill="white" fill-opacity="0.964282"/>
<path d="M358.517 456.137L183.107 392.293C181.715 396.121 180.389 399.971 179.13 403.845L356.661 461.528C357.248 459.72 357.866 457.923 358.517 456.137Z" fill="white" fill-opacity="0.96215"/>
<path d="M356.661 461.528L179.13 403.845C177.871 407.717 176.681 411.613 175.559 415.527L354.994 466.979C355.517 465.153 356.074 463.335 356.661 461.528Z" fill="white" fill-opacity="0.959956"/>
<path d="M354.994 466.979L175.559 415.527C174.436 419.441 173.382 423.375 172.396 427.327L353.518 472.486C353.978 470.642 354.47 468.806 354.994 466.979Z" fill="white" fill-opacity="0.957701"/>
<path d="M353.518 472.486L172.396 427.327C171.411 431.279 170.495 435.247 169.648 439.231L352.235 478.041C352.631 476.182 353.059 474.33 353.518 472.486Z" fill="white" fill-opacity="0.955383"/>
<path d="M352.235 478.041L169.648 439.231C168.801 443.214 168.024 447.213 167.317 451.223L351.148 483.638C351.478 481.766 351.841 479.9 352.235 478.041Z" fill="white" fill-opacity="0.953004"/>
<path d="M351.148 483.638L167.317 451.223C166.61 455.234 165.973 459.256 165.406 463.289L350.256 489.269C350.52 487.386 350.818 485.509 351.148 483.638Z" fill="white" fill-opacity="0.950563"/>
<path d="M350.257 489.269L165.406 463.29C164.84 467.322 164.343 471.365 163.917 475.415L349.562 494.928C349.761 493.037 349.992 491.15 350.257 489.269Z" fill="white" fill-opacity="0.948061"/>
<path d="M349.562 494.927L163.917 475.415C163.491 479.465 163.137 483.523 162.852 487.585L349.064 500.607C349.197 498.71 349.363 496.817 349.562 494.927Z" fill="white" fill-opacity="0.945496"/>
<path d="M349.064 500.607L162.852 487.585C162.568 491.648 162.356 495.715 162.213 499.785L348.767 506.3C348.833 504.401 348.932 502.502 349.064 500.607Z" fill="white" fill-opacity="0.94287"/>
<path d="M348.767 506.3L162.213 499.786C162.071 503.855 162 507.928 162 512H348.667C348.667 510.1 348.7 508.2 348.767 506.3Z" fill="white" fill-opacity="0.940182"/>
<path d="M348.667 512H162C162 516.072 162.071 520.145 162.213 524.215L348.767 517.7C348.7 515.801 348.667 513.9 348.667 512Z" fill="white" fill-opacity="0.937432"/>
<path d="M348.767 517.7L162.213 524.214C162.356 528.285 162.568 532.352 162.852 536.415L349.064 523.393C348.932 521.497 348.833 519.599 348.767 517.7Z" fill="white" fill-opacity="0.93462"/>
<path d="M349.064 523.393L162.852 536.415C163.137 540.477 163.491 544.535 163.917 548.585L349.562 529.072C349.363 527.182 349.197 525.29 349.064 523.393Z" fill="white" fill-opacity="0.931747"/>
<path d="M349.562 529.073L163.917 548.585C164.343 552.636 164.84 556.678 165.406 560.711L350.257 534.732C349.992 532.85 349.761 530.964 349.562 529.073Z" fill="white" fill-opacity="0.928811"/>
<path d="M350.256 534.731L165.406 560.711C165.973 564.744 166.61 568.766 167.317 572.777L351.148 540.362C350.818 538.491 350.52 536.614 350.256 534.731Z" fill="white" fill-opacity="0.925814"/>
<path d="M351.148 540.362L167.317 572.777C168.024 576.787 168.801 580.786 169.648 584.769L352.235 545.96C351.841 544.1 351.478 542.235 351.148 540.362Z" fill="white" fill-opacity="0.922755"/>
<path d="M352.235 545.959L169.648 584.769C170.495 588.752 171.411 592.721 172.396 596.673L353.518 551.513C353.059 549.67 352.631 547.817 352.235 545.959Z" fill="white" fill-opacity="0.919635"/>
<path d="M353.518 551.514L172.396 596.673C173.382 600.625 174.436 604.559 175.559 608.473L354.994 557.021C354.47 555.194 353.978 553.358 353.518 551.514Z" fill="white" fill-opacity="0.916452"/>
<path d="M354.994 557.021L175.559 608.473C176.681 612.387 177.871 616.283 179.13 620.155L356.661 562.473C356.074 560.665 355.517 558.848 354.994 557.021Z" fill="white" fill-opacity="0.913208"/>
<path d="M356.661 562.473L179.13 620.155C180.389 624.029 181.715 627.88 183.107 631.707L358.517 567.864C357.866 566.077 357.248 564.281 356.661 562.473Z" fill="white" fill-opacity="0.909902"/>
<path d="M358.517 567.864L183.107 631.707C184.501 635.534 185.96 639.337 187.486 643.112L360.56 573.186C359.848 571.424 359.167 569.649 358.517 567.864Z" fill="white" fill-opacity="0.906534"/>
<path d="M360.56 573.186L187.486 643.112C189.012 646.888 190.603 650.637 192.259 654.358L362.788 578.434C362.014 576.698 361.272 574.948 360.56 573.186Z" fill="white" fill-opacity="0.903104"/>
<path d="M362.788 578.434L192.259 654.358C193.915 658.078 195.637 661.77 197.422 665.43L365.197 583.601C364.364 581.893 363.561 580.17 362.788 578.434Z" fill="white" fill-opacity="0.899613"/>
<path d="M365.197 583.601L197.422 665.43C199.207 669.09 201.056 672.719 202.969 676.315L367.785 588.681C366.893 587.003 366.03 585.309 365.197 583.601Z" fill="white" fill-opacity="0.896059"/>
<path d="M367.785 588.681L202.969 676.316C204.88 679.912 206.855 683.473 208.891 687L370.55 593.667C369.599 592.022 368.677 590.358 367.785 588.681Z" fill="white" fill-opacity="0.892444"/>
<path d="M370.55 593.667L208.891 687C210.928 690.527 213.026 694.018 215.184 697.472L373.486 598.553C372.479 596.942 371.5 595.312 370.55 593.667Z" fill="white" fill-opacity="0.888768"/>
<path d="M373.486 598.554L215.183 697.472C217.341 700.925 219.56 704.341 221.837 707.717L376.59 603.335C375.528 601.76 374.493 600.166 373.486 598.554Z" fill="white" fill-opacity="0.885029"/>
<path d="M376.59 603.335L221.837 707.717C224.114 711.094 226.45 714.43 228.844 717.724L379.861 608.004C378.743 606.467 377.653 604.91 376.59 603.335Z" fill="white" fill-opacity="0.881228"/>
<path d="M379.861 608.004L228.845 717.724C231.238 721.02 233.69 724.273 236.197 727.481L383.292 612.558C382.121 611.06 380.978 609.543 379.861 608.004Z" fill="white" fill-opacity="0.877366"/>
<path d="M383.291 612.559L236.196 727.482C238.703 730.691 241.267 733.856 243.884 736.976L386.879 616.989C385.657 615.533 384.462 614.056 383.291 612.559Z" fill="white" fill-opacity="0.873442"/>
<path d="M386.879 616.989L243.884 736.975C246.502 740.095 249.174 743.169 251.9 746.196L390.62 621.291C389.348 619.879 388.101 618.445 386.879 616.989Z" fill="white" fill-opacity="0.869456"/>
<path d="M390.62 621.292L251.899 746.196C254.624 749.223 257.401 752.201 260.231 755.131L394.508 625.461C393.187 624.093 391.891 622.704 390.62 621.292Z" fill="white" fill-opacity="0.865409"/>
<path d="M394.508 625.46L260.231 755.13C263.06 758.06 265.94 760.939 268.869 763.768L398.539 629.491C397.172 628.172 395.828 626.828 394.508 625.46Z" fill="white" fill-opacity="0.861299"/>
<path d="M398.539 629.492L268.87 763.769C271.799 766.598 274.778 769.376 277.804 772.1L402.709 633.38C401.297 632.109 399.907 630.812 398.539 629.492Z" fill="white" fill-opacity="0.857128"/>
<path d="M402.709 633.38L277.805 772.1C280.831 774.826 283.905 777.498 287.025 780.116L407.012 637.121C405.556 635.899 404.121 634.652 402.709 633.38Z" fill="white" fill-opacity="0.852895"/>
<path d="M407.011 637.121L287.025 780.116C290.144 782.733 293.31 785.297 296.519 787.804L411.442 640.709C409.945 639.538 408.467 638.343 407.011 637.121Z" fill="white" fill-opacity="0.8486"/>
<path d="M411.442 640.708L296.519 787.804C299.727 790.311 302.98 792.762 306.276 795.156L415.995 644.139C414.457 643.022 412.94 641.879 411.442 640.708Z" fill="white" fill-opacity="0.844244"/>
<path d="M415.996 644.14L306.276 795.156C309.571 797.55 312.906 799.886 316.283 802.163L420.665 647.41C419.09 646.347 417.533 645.257 415.996 644.14Z" fill="white" fill-opacity="0.839825"/>
<path d="M420.665 647.41L316.283 802.163C319.659 804.441 323.075 806.659 326.528 808.817L425.447 650.514C423.835 649.507 422.241 648.472 420.665 647.41Z" fill="white" fill-opacity="0.835345"/>
<path d="M425.446 650.514L326.528 808.817C329.982 810.975 333.473 813.073 337 815.109L430.333 653.45C428.688 652.5 427.058 651.521 425.446 650.514Z" fill="white" fill-opacity="0.830803"/>
<path d="M430.333 653.451L337 815.11C340.527 817.145 344.089 819.12 347.685 821.032L435.319 656.215C433.642 655.323 431.979 654.402 430.333 653.451Z" fill="white" fill-opacity="0.826199"/>
<path d="M435.319 656.215L347.685 821.031C351.281 822.944 354.91 824.793 358.571 826.578L440.4 658.803C438.692 657.97 436.998 657.107 435.319 656.215Z" fill="white" fill-opacity="0.821534"/>
<path d="M440.399 658.803L358.57 826.578C362.231 828.364 365.922 830.085 369.642 831.741L445.566 661.212C443.83 660.439 442.107 659.637 440.399 658.803Z" fill="white" fill-opacity="0.816806"/>
<path d="M445.566 661.212L369.643 831.741C373.363 833.397 377.112 834.988 380.888 836.514L450.815 663.44C449.052 662.728 447.302 661.986 445.566 661.212Z" fill="white" fill-opacity="0.812017"/>
<path d="M450.814 663.439L380.888 836.514C384.664 838.04 388.466 839.499 392.293 840.892L456.136 665.482C454.351 664.833 452.577 664.152 450.814 663.439Z" fill="white" fill-opacity="0.807166"/>
<path d="M456.137 665.483L392.293 840.893C396.121 842.285 399.971 843.611 403.845 844.87L461.528 667.339C459.72 666.752 457.923 666.133 456.137 665.483Z" fill="white" fill-opacity="0.802253"/>
<path d="M461.528 667.339L403.845 844.87C407.717 846.129 411.613 847.319 415.527 848.442L466.979 669.006C465.153 668.483 463.335 667.926 461.528 667.339Z" fill="white" fill-opacity="0.797279"/>
<path d="M466.979 669.006L415.527 848.442C419.441 849.564 423.375 850.618 427.327 851.604L472.486 670.482C470.642 670.022 468.806 669.53 466.979 669.006Z" fill="white" fill-opacity="0.792242"/>
<path d="M472.486 670.481L427.327 851.603C431.279 852.589 435.247 853.504 439.231 854.351L478.041 671.764C476.182 671.368 474.33 670.941 472.486 670.481Z" fill="white" fill-opacity="0.787144"/>
<path d="M478.041 671.764L439.231 854.351C443.214 855.199 447.213 855.975 451.223 856.683L483.638 672.851C481.766 672.522 479.9 672.159 478.041 671.764Z" fill="white" fill-opacity="0.781984"/>
<path d="M483.638 672.852L451.223 856.683C455.234 857.39 459.256 858.027 463.289 858.594L489.269 673.744C487.386 673.48 485.509 673.182 483.638 672.852Z" fill="white" fill-opacity="0.776763"/>
<path d="M489.269 673.744L463.29 858.594C467.322 859.161 471.365 859.657 475.415 860.083L494.928 674.438C493.037 674.239 491.15 674.008 489.269 673.744Z" fill="white" fill-opacity="0.771479"/>
<path d="M494.927 674.438L475.415 860.083C479.465 860.509 483.523 860.863 487.585 861.148L500.607 674.936C498.71 674.803 496.817 674.637 494.927 674.438Z" fill="white" fill-opacity="0.766134"/>
<path d="M500.607 674.936L487.585 861.148C491.648 861.432 495.715 861.645 499.785 861.787L506.3 675.234C504.401 675.168 502.502 675.069 500.607 674.936Z" fill="white" fill-opacity="0.760727"/>
<path d="M506.3 675.233L499.786 861.787C503.855 861.929 507.928 862 512 862V675.333C510.1 675.333 508.2 675.3 506.3 675.233Z" fill="white" fill-opacity="0.755258"/>
<path d="M512 675.333V862C516.072 862 520.145 861.929 524.215 861.787L517.7 675.233C515.801 675.3 513.9 675.333 512 675.333Z" fill="white" fill-opacity="0.749727"/>
<path d="M517.7 675.234L524.214 861.787C528.285 861.645 532.352 861.432 536.415 861.148L523.393 674.936C521.497 675.069 519.599 675.168 517.7 675.234Z" fill="white" fill-opacity="0.744134"/>
<path d="M523.393 674.936L536.415 861.148C540.477 860.863 544.535 860.509 548.585 860.083L529.072 674.438C527.182 674.637 525.29 674.803 523.393 674.936Z" fill="white" fill-opacity="0.73848"/>
<path d="M529.073 674.438L548.585 860.083C552.636 859.657 556.678 859.161 560.711 858.594L534.732 673.744C532.85 674.008 530.964 674.239 529.073 674.438Z" fill="white" fill-opacity="0.732764"/>
<path d="M534.731 673.744L560.711 858.594C564.744 858.027 568.766 857.39 572.777 856.683L540.362 672.852C538.491 673.182 536.614 673.48 534.731 673.744Z" fill="white" fill-opacity="0.726986"/>
<path d="M540.362 672.851L572.777 856.683C576.787 855.975 580.786 855.199 584.769 854.351L545.96 671.764C544.1 672.159 542.235 672.522 540.362 672.851Z" fill="white" fill-opacity="0.721146"/>
<path d="M545.959 671.764L584.769 854.351C588.752 853.504 592.721 852.589 596.673 851.603L551.513 670.481C549.67 670.941 547.817 671.368 545.959 671.764Z" fill="white" fill-opacity="0.715245"/>
<path d="M551.514 670.482L596.673 851.604C600.625 850.618 604.559 849.564 608.473 848.442L557.021 669.006C555.194 669.53 553.358 670.022 551.514 670.482Z" fill="white" fill-opacity="0.709282"/>
<path d="M557.021 669.006L608.473 848.442C612.387 847.319 616.283 846.129 620.155 844.87L562.473 667.339C560.665 667.926 558.848 668.483 557.021 669.006Z" fill="white" fill-opacity="0.703256"/>
<path d="M562.473 667.339L620.155 844.87C624.029 843.611 627.88 842.285 631.707 840.893L567.864 665.483C566.077 666.133 564.281 666.752 562.473 667.339Z" fill="white" fill-opacity="0.69717"/>
<path d="M567.864 665.482L631.707 840.892C635.534 839.499 639.337 838.04 643.112 836.514L573.186 663.439C571.424 664.152 569.649 664.833 567.864 665.482Z" fill="white" fill-opacity="0.691021"/>
<path d="M573.186 663.44L643.112 836.514C646.888 834.988 650.637 833.397 654.358 831.741L578.434 661.212C576.698 661.986 574.948 662.728 573.186 663.44Z" fill="white" fill-opacity="0.68481"/>
<path d="M578.434 661.212L654.358 831.741C658.078 830.085 661.77 828.364 665.43 826.578L583.601 658.803C581.893 659.637 580.17 660.439 578.434 661.212Z" fill="white" fill-opacity="0.678538"/>
<path d="M583.601 658.803L665.43 826.578C669.09 824.793 672.719 822.944 676.315 821.031L588.681 656.215C587.003 657.107 585.309 657.97 583.601 658.803Z" fill="white" fill-opacity="0.672204"/>
<path d="M588.681 656.215L676.316 821.032C679.912 819.12 683.473 817.145 687 815.11L593.667 653.451C592.022 654.402 590.358 655.323 588.681 656.215Z" fill="white" fill-opacity="0.665808"/>
<path d="M593.667 653.45L687 815.109C690.527 813.073 694.018 810.975 697.472 808.817L598.553 650.514C596.942 651.521 595.312 652.5 593.667 653.45Z" fill="white" fill-opacity="0.659351"/>
<path d="M598.554 650.514L697.472 808.817C700.925 806.659 704.341 804.441 707.717 802.163L603.335 647.41C601.76 648.472 600.166 649.507 598.554 650.514Z" fill="white" fill-opacity="0.652831"/>
<path d="M603.335 647.41L707.717 802.163C711.094 799.886 714.43 797.55 717.724 795.156L608.004 644.14C606.467 645.257 604.91 646.347 603.335 647.41Z" fill="white" fill-opacity="0.64625"/>
<path d="M608.004 644.139L717.724 795.156C721.02 792.762 724.273 790.311 727.481 787.804L612.558 640.708C611.06 641.879 609.543 643.022 608.004 644.139Z" fill="white" fill-opacity="0.639607"/>
<path d="M612.559 640.709L727.482 787.804C730.691 785.297 733.856 782.733 736.976 780.116L616.989 637.121C615.533 638.343 614.056 639.538 612.559 640.709Z" fill="white" fill-opacity="0.632902"/>
<path d="M616.989 637.121L736.975 780.116C740.095 777.498 743.169 774.826 746.196 772.1L621.291 633.38C619.879 634.652 618.445 635.899 616.989 637.121Z" fill="white" fill-opacity="0.626135"/>
<path d="M621.292 633.38L746.196 772.1C749.223 769.376 752.201 766.598 755.131 763.769L625.461 629.492C624.093 630.812 622.704 632.109 621.292 633.38Z" fill="white" fill-opacity="0.619307"/>
<path d="M625.46 629.491L755.13 763.768C758.06 760.939 760.939 758.06 763.768 755.13L629.491 625.46C628.172 626.828 626.828 628.172 625.46 629.491Z" fill="white" fill-opacity="0.612417"/>
<path d="M629.492 625.461L763.769 755.131C766.598 752.201 769.376 749.223 772.1 746.196L633.38 621.292C632.109 622.704 630.812 624.093 629.492 625.461Z" fill="white" fill-opacity="0.605465"/>
<path d="M633.38 621.291L772.1 746.196C774.826 743.169 777.498 740.095 780.116 736.975L637.121 616.989C635.899 618.445 634.652 619.879 633.38 621.291Z" fill="white" fill-opacity="0.598451"/>
<path d="M637.121 616.989L780.116 736.976C782.733 733.856 785.297 730.691 787.804 727.482L640.709 612.559C639.538 614.056 638.343 615.533 637.121 616.989Z" fill="white" fill-opacity="0.591375"/>
<path d="M640.708 612.558L787.804 727.481C790.311 724.273 792.762 721.02 795.156 717.724L644.139 608.004C643.022 609.543 641.879 611.06 640.708 612.558Z" fill="white" fill-opacity="0.584238"/>
<path d="M644.14 608.004L795.156 717.724C797.55 714.43 799.886 711.094 802.163 707.717L647.41 603.335C646.347 604.91 645.257 606.467 644.14 608.004Z" fill="white" fill-opacity="0.577038"/>
<path d="M647.41 603.335L802.163 707.717C804.441 704.341 806.659 700.925 808.817 697.472L650.514 598.554C649.507 600.166 648.472 601.76 647.41 603.335Z" fill="white" fill-opacity="0.569777"/>
<path d="M650.514 598.553L808.817 697.472C810.975 694.018 813.073 690.527 815.109 687L653.45 593.667C652.5 595.312 651.521 596.942 650.514 598.553Z" fill="white" fill-opacity="0.562455"/>
<path d="M653.451 593.667L815.11 687C817.145 683.473 819.12 679.912 821.032 676.316L656.215 588.681C655.323 590.358 654.402 592.022 653.451 593.667Z" fill="white" fill-opacity="0.55507"/>
<path d="M656.215 588.681L821.031 676.315C822.944 672.719 824.793 669.09 826.578 665.43L658.803 583.601C657.97 585.309 657.107 587.003 656.215 588.681Z" fill="white" fill-opacity="0.547624"/>
<path d="M658.803 583.601L826.578 665.43C828.364 661.77 830.085 658.078 831.741 654.358L661.212 578.434C660.439 580.17 659.637 581.893 658.803 583.601Z" fill="white" fill-opacity="0.540115"/>
<path d="M661.212 578.434L831.741 654.358C833.397 650.637 834.988 646.888 836.514 643.112L663.44 573.186C662.728 574.948 661.986 576.698 661.212 578.434Z" fill="white" fill-opacity="0.532545"/>
<path d="M663.439 573.186L836.514 643.112C838.04 639.337 839.499 635.534 840.892 631.707L665.482 567.864C664.833 569.649 664.152 571.424 663.439 573.186Z" fill="white" fill-opacity="0.524914"/>
<path d="M665.483 567.864L840.893 631.707C842.285 627.88 843.611 624.029 844.87 620.155L667.339 562.473C666.752 564.281 666.133 566.077 665.483 567.864Z" fill="white" fill-opacity="0.51722"/>
<path d="M667.339 562.473L844.87 620.155C846.129 616.283 847.319 612.387 848.442 608.473L669.006 557.021C668.483 558.848 667.926 560.665 667.339 562.473Z" fill="white" fill-opacity="0.509465"/>
<path d="M669.006 557.021L848.442 608.473C849.564 604.559 850.618 600.625 851.604 596.673L670.482 551.514C670.022 553.358 669.53 555.194 669.006 557.021Z" fill="white" fill-opacity="0.501648"/>
<path d="M670.481 551.513L851.603 596.673C852.589 592.721 853.504 588.752 854.351 584.769L671.764 545.959C671.368 547.817 670.941 549.67 670.481 551.513Z" fill="white" fill-opacity="0.493769"/>
<path d="M671.764 545.96L854.351 584.769C855.199 580.786 855.975 576.787 856.683 572.777L672.851 540.362C672.522 542.235 672.159 544.1 671.764 545.96Z" fill="white" fill-opacity="0.485828"/>
<path d="M672.852 540.362L856.683 572.777C857.39 568.766 858.027 564.744 858.594 560.711L673.744 534.731C673.48 536.614 673.182 538.491 672.852 540.362Z" fill="white" fill-opacity="0.477825"/>
<path d="M673.744 534.732L858.594 560.711C859.161 556.678 859.657 552.636 860.083 548.585L674.438 529.073C674.239 530.964 674.008 532.85 673.744 534.732Z" fill="white" fill-opacity="0.469761"/>
<path d="M674.438 529.072L860.083 548.585C860.509 544.535 860.863 540.477 861.148 536.415L674.936 523.393C674.803 525.29 674.637 527.182 674.438 529.072Z" fill="white" fill-opacity="0.461635"/>
<path d="M674.936 523.393L861.148 536.415C861.432 532.352 861.645 528.285 861.787 524.214L675.234 517.7C675.168 519.599 675.069 521.497 674.936 523.393Z" fill="white" fill-opacity="0.453447"/>
<path d="M675.233 517.7L861.787 524.215C861.929 520.145 862 516.072 862 512H675.333C675.333 513.9 675.3 515.801 675.233 517.7Z" fill="white" fill-opacity="0.445197"/>
<path d="M675.333 512H862C862 507.928 861.929 503.855 861.787 499.786L675.233 506.3C675.3 508.2 675.333 510.1 675.333 512Z" fill="white" fill-opacity="0.436886"/>
<path d="M675.234 506.3L861.787 499.785C861.645 495.715 861.432 491.648 861.148 487.585L674.936 500.607C675.069 502.502 675.168 504.401 675.234 506.3Z" fill="white" fill-opacity="0.428512"/>
<path d="M674.936 500.607L861.148 487.585C860.863 483.523 860.509 479.465 860.083 475.415L674.438 494.927C674.637 496.817 674.803 498.71 674.936 500.607Z" fill="white" fill-opacity="0.420077"/>
<path d="M674.438 494.928L860.083 475.415C859.657 471.365 859.161 467.322 858.594 463.29L673.744 489.269C674.008 491.15 674.239 493.037 674.438 494.928Z" fill="white" fill-opacity="0.41158"/>
<path d="M673.744 489.269L858.594 463.289C858.027 459.256 857.39 455.234 856.683 451.223L672.852 483.638C673.182 485.509 673.48 487.386 673.744 489.269Z" fill="white" fill-opacity="0.403021"/>
<path d="M672.851 483.638L856.683 451.223C855.975 447.213 855.199 443.214 854.351 439.231L671.764 478.041C672.159 479.9 672.522 481.766 672.851 483.638Z" fill="white" fill-opacity="0.394401"/>
<path d="M671.764 478.041L854.351 439.231C853.504 435.247 852.589 431.279 851.603 427.327L670.481 472.486C670.941 474.33 671.368 476.182 671.764 478.041Z" fill="white" fill-opacity="0.385719"/>
<path d="M670.482 472.486L851.604 427.327C850.618 423.375 849.564 419.441 848.442 415.527L669.006 466.979C669.53 468.806 670.022 470.642 670.482 472.486Z" fill="white" fill-opacity="0.376975"/>
<path d="M669.006 466.979L848.442 415.527C847.319 411.613 846.129 407.717 844.87 403.845L667.339 461.528C667.926 463.335 668.483 465.153 669.006 466.979Z" fill="white" fill-opacity="0.368169"/>
<path d="M667.339 461.528L844.87 403.845C843.611 399.971 842.285 396.121 840.893 392.293L665.483 456.137C666.133 457.923 666.752 459.72 667.339 461.528Z" fill="white" fill-opacity="0.359301"/>
<path d="M665.482 456.136L840.892 392.293C839.499 388.466 838.04 384.664 836.514 380.888L663.439 450.814C664.152 452.577 664.833 454.351 665.482 456.136Z" fill="white" fill-opacity="0.350371"/>
<path d="M663.44 450.815L836.514 380.888C834.988 377.112 833.397 373.363 831.741 369.643L661.212 445.566C661.986 447.302 662.728 449.052 663.44 450.815Z" fill="white" fill-opacity="0.34138"/>
<path d="M661.212 445.566L831.741 369.642C830.085 365.922 828.364 362.231 826.578 358.57L658.803 440.399C659.637 442.107 660.439 443.83 661.212 445.566Z" fill="white" fill-opacity="0.332327"/>
<path d="M658.803 440.4L826.578 358.571C824.793 354.91 822.944 351.281 821.031 347.685L656.215 435.319C657.107 436.998 657.97 438.692 658.803 440.4Z" fill="white" fill-opacity="0.323212"/>
<path d="M656.215 435.319L821.032 347.685C819.12 344.089 817.145 340.527 815.11 337L653.451 430.333C654.402 431.979 655.323 433.642 656.215 435.319Z" fill="white" fill-opacity="0.314035"/>
<path d="M653.45 430.333L815.109 337C813.073 333.473 810.975 329.982 808.817 326.528L650.514 425.446C651.521 427.058 652.5 428.688 653.45 430.333Z" fill="white" fill-opacity="0.304797"/>
<path d="M650.514 425.447L808.817 326.528C806.659 323.075 804.441 319.659 802.163 316.283L647.41 420.665C648.472 422.241 649.507 423.835 650.514 425.447Z" fill="white" fill-opacity="0.295497"/>
<path d="M647.41 420.665L802.163 316.283C799.886 312.906 797.55 309.571 795.156 306.276L644.14 415.996C645.257 417.533 646.347 419.09 647.41 420.665Z" fill="white" fill-opacity="0.286135"/>
<path d="M644.139 415.995L795.156 306.276C792.762 302.98 790.311 299.727 787.804 296.519L640.708 411.442C641.879 412.94 643.022 414.457 644.139 415.995Z" fill="white" fill-opacity="0.276711"/>
<path d="M640.709 411.442L787.804 296.519C785.297 293.31 782.733 290.144 780.116 287.025L637.121 407.011C638.343 408.467 639.538 409.945 640.709 411.442Z" fill="white" fill-opacity="0.267225"/>
<path d="M637.121 407.012L780.116 287.025C777.498 283.905 774.826 280.831 772.1 277.805L633.38 402.709C634.652 404.121 635.899 405.556 637.121 407.012Z" fill="white" fill-opacity="0.257678"/>
<path d="M633.38 402.709L772.1 277.804C769.376 274.778 766.598 271.799 763.769 268.87L629.492 398.539C630.812 399.907 632.109 401.297 633.38 402.709Z" fill="white" fill-opacity="0.248068"/>
<path d="M629.491 398.539L763.768 268.869C760.939 265.94 758.06 263.06 755.13 260.231L625.46 394.508C626.828 395.828 628.172 397.172 629.491 398.539Z" fill="white" fill-opacity="0.238397"/>
<path d="M625.461 394.508L755.131 260.231C752.201 257.401 749.223 254.624 746.196 251.899L621.292 390.62C622.704 391.891 624.093 393.187 625.461 394.508Z" fill="white" fill-opacity="0.228665"/>
<path d="M621.291 390.62L746.196 251.9C743.169 249.174 740.095 246.502 736.975 243.884L616.989 386.879C618.445 388.101 619.879 389.348 621.291 390.62Z" fill="white" fill-opacity="0.21887"/>
<path d="M616.989 386.879L736.976 243.884C733.856 241.267 730.691 238.703 727.482 236.196L612.559 383.291C614.056 384.462 615.533 385.657 616.989 386.879Z" fill="white" fill-opacity="0.209013"/>
<path d="M612.558 383.292L727.481 236.197C724.273 233.69 721.02 231.238 717.724 228.845L608.004 379.861C609.543 380.978 611.06 382.121 612.558 383.292Z" fill="white" fill-opacity="0.199095"/>
<path d="M608.004 379.861L717.724 228.844C714.43 226.45 711.094 224.114 707.717 221.837L603.335 376.59C604.91 377.653 606.467 378.743 608.004 379.861Z" fill="white" fill-opacity="0.189115"/>
<path d="M603.335 376.59L707.717 221.837C704.341 219.56 700.925 217.341 697.472 215.183L598.554 373.486C600.166 374.493 601.76 375.528 603.335 376.59Z" fill="white" fill-opacity="0.179073"/>
<path d="M598.553 373.486L697.472 215.184C694.018 213.026 690.527 210.928 687 208.891L593.667 370.55C595.312 371.5 596.942 372.479 598.553 373.486Z" fill="white" fill-opacity="0.16897"/>
<path d="M593.667 370.55L687 208.891C683.473 206.855 679.912 204.88 676.316 202.969L588.681 367.785C590.358 368.677 592.022 369.599 593.667 370.55Z" fill="white" fill-opacity="0.158804"/>
<path d="M588.681 367.785L676.315 202.969C672.719 201.056 669.09 199.207 665.43 197.422L583.601 365.197C585.309 366.03 587.003 366.893 588.681 367.785Z" fill="white" fill-opacity="0.148577"/>
<path d="M583.601 365.197L665.43 197.422C661.77 195.637 658.078 193.915 654.358 192.259L578.434 362.788C580.17 363.561 581.893 364.364 583.601 365.197Z" fill="white" fill-opacity="0.138288"/>
<path d="M578.434 362.788L654.358 192.259C650.637 190.603 646.888 189.012 643.112 187.486L573.186 360.56C574.948 361.272 576.698 362.014 578.434 362.788Z" fill="white" fill-opacity="0.127937"/>
<path d="M573.186 360.56L643.112 187.486C639.337 185.96 635.534 184.501 631.707 183.107L567.864 358.517C569.649 359.167 571.424 359.848 573.186 360.56Z" fill="white" fill-opacity="0.117525"/>
<path d="M567.864 358.517L631.707 183.107C627.88 181.715 624.029 180.389 620.155 179.13L562.473 356.661C564.281 357.248 566.077 357.866 567.864 358.517Z" fill="white" fill-opacity="0.10705"/>
<path d="M562.473 356.661L620.155 179.13C616.283 177.871 612.387 176.681 608.473 175.559L557.021 354.994C558.848 355.517 560.665 356.074 562.473 356.661Z" fill="white" fill-opacity="0.0965142"/>
<path d="M557.021 354.994L608.473 175.559C604.559 174.436 600.625 173.382 596.673 172.396L551.514 353.518C553.358 353.978 555.194 354.47 557.021 354.994Z" fill="white" fill-opacity="0.0859162"/>
<path d="M551.513 353.518L596.673 172.396C592.721 171.411 588.752 170.495 584.769 169.648L545.959 352.235C547.817 352.631 549.67 353.059 551.513 353.518Z" fill="white" fill-opacity="0.0752564"/>
<path d="M545.96 352.235L584.769 169.648C580.786 168.801 576.787 168.024 572.777 167.317L540.362 351.148C542.235 351.478 544.1 351.841 545.96 352.235Z" fill="white" fill-opacity="0.0645348"/>
<path d="M540.362 351.148L572.777 167.317C568.766 166.61 564.744 165.973 560.711 165.406L534.731 350.256C536.614 350.52 538.491 350.818 540.362 351.148Z" fill="white" fill-opacity="0.0537514"/>
<path d="M534.732 350.257L560.711 165.406C556.678 164.84 552.636 164.343 548.585 163.917L529.073 349.562C530.964 349.761 532.85 349.992 534.732 350.257Z" fill="white" fill-opacity="0.0429063"/>
<path d="M529.072 349.562L548.585 163.917C544.535 163.491 540.477 163.137 536.415 162.852L523.393 349.064C525.29 349.197 527.182 349.363 529.072 349.562Z" fill="white" fill-opacity="0.0319993"/>
<path d="M523.393 349.064L536.415 162.852C532.352 162.568 528.285 162.356 524.214 162.213L517.7 348.767C519.599 348.833 521.497 348.932 523.393 349.064Z" fill="white" fill-opacity="0.0210306"/>
<path d="M517.7 348.767L524.215 162.213C520.145 162.071 516.072 162 512 162V348.667C513.9 348.667 515.801 348.7 517.7 348.767Z" fill="white" fill-opacity="0.01"/>
</g>
</g>
</g>
<defs>
<filter id="filter0_ii_6322_2447" x="0" y="0" width="1024" height="1024" filterUnits="userSpaceOnUse" color-interpolation-filters="sRGB">
<feFlood flood-opacity="0" result="BackgroundImageFix"/>
<feBlend mode="normal" in="SourceGraphic" in2="BackgroundImageFix" result="shape"/>
<feColorMatrix in="SourceAlpha" type="matrix" values="0 0 0 0 0 0 0 0 0 0 0 0 0 0 0 0 0 0 127 0" result="hardAlpha"/>
<feOffset dx="8" dy="8"/>
<feComposite in2="hardAlpha" operator="arithmetic" k2="-1" k3="1"/>
<feColorMatrix type="matrix" values="0 0 0 0 1 0 0 0 0 1 0 0 0 0 1 0 0 0 0.1 0"/>
<feBlend mode="plus-lighter" in2="shape" result="effect1_innerShadow_6322_2447"/>
<feColorMatrix in="SourceAlpha" type="matrix" values="0 0 0 0 0 0 0 0 0 0 0 0 0 0 0 0 0 0 127 0" result="hardAlpha"/>
<feOffset dx="-8" dy="-8"/>
<feComposite in2="hardAlpha" operator="arithmetic" k2="-1" k3="1"/>
<feColorMatrix type="matrix" values="0 0 0 0 0 0 0 0 0 0 0 0 0 0 0 0 0 0 0.1 0"/>
<feBlend mode="plus-darker" in2="effect1_innerShadow_6322_2447" result="effect2_innerShadow_6322_2447"/>
</filter>
<filter id="filter1_di_6322_2447" x="107" y="157" width="810" height="810" filterUnits="userSpaceOnUse" color-interpolation-filters="sRGB">
<feFlood flood-opacity="0" result="BackgroundImageFix"/>
<feColorMatrix in="SourceAlpha" type="matrix" values="0 0 0 0 0 0 0 0 0 0 0 0 0 0 0 0 0 0 127 0" result="hardAlpha"/>
<feMorphology radius="20" operator="erode" in="SourceAlpha" result="effect1_dropShadow_6322_2447"/>
<feOffset dy="50"/>
<feGaussianBlur stdDeviation="37.5"/>
<feColorMatrix type="matrix" values="0 0 0 0 0.101961 0 0 0 0 0.101961 0 0 0 0 0.101961 0 0 0 0.25 0"/>
<feBlend mode="soft-light" in2="BackgroundImageFix" result="effect1_dropShadow_6322_2447"/>
<feBlend mode="normal" in="SourceGraphic" in2="effect1_dropShadow_6322_2447" result="shape"/>
<feColorMatrix in="SourceAlpha" type="matrix" values="0 0 0 0 0 0 0 0 0 0 0 0 0 0 0 0 0 0 127 0" result="hardAlpha"/>
<feOffset dx="2" dy="2"/>
<feComposite in2="hardAlpha" operator="arithmetic" k2="-1" k3="1"/>
<feColorMatrix type="matrix" values="0 0 0 0 1 0 0 0 0 1 0 0 0 0 1 0 0 0 0.25 0"/>
<feBlend mode="plus-lighter" in2="shape" result="effect2_innerShadow_6322_2447"/>
</filter>
<linearGradient id="paint0_linear_6322_2447" x1="1024" y1="5.72205e-06" x2="0" y2="0" gradientUnits="userSpaceOnUse">
<stop stop-color="#3B82F6"/>
<stop offset="1" stop-color="#2563EB"/>
</linearGradient>
<clipPath id="clip0_6322_2447">
<rect x="162" y="162" width="700" height="700" rx="350" fill="white"/>
</clipPath>
</defs>
</svg>
